<svg width="40" height="77" viewBox="0 0 40 77" fill="none" xmlns="http://www.w3.org/2000/svg">
<g id="Group">
<path id="Vector" d="M6.76019 36.7746C3.67735 39.9594 2.84035 46.6998 2.46604 51.0124C1.98776 56.5467 1.50948 62.081 1.03119 67.6153C1 67.9651 0.968808 68.3254 1.06238 68.67C1.26514 69.4375 2.04494 69.97 2.85595 70.1475C3.66695 70.3251 4.51434 70.2154 5.34094 70.1058C14.4959 69.9961 22.3772 81.6599 36.6737 72.1054C37.3339 71.6669 37.9526 71.2126 38.0149 70.4504C38.0201 70.4086 38.0253 70.3668 38.0305 70.3303C37.9422 61.7312 39.1483 59.1468 36.8764 49.0441C36.1798 45.9428 31.6465 39.5992 30.1129 37.8919C28.8964 36.5344 27.6799 35.1822 26.4634 33.8247C25.2157 32.4359 23.8848 30.7652 24.2643 28.9744C24.4411 28.1494 25.4444 27.3193 26.1307 27.8466C26.2294 27.9249 26.3126 28.0241 26.3698 28.1286C26.7337 28.776 26.323 29.627 25.6732 30.0238C25.0181 30.4206 24.2019 30.4676 23.4273 30.4676C20.3809 30.4676 17.376 29.888 14.3503 29.5382C13.0351 29.3868 11.6938 29.2824 10.3993 29.5382C9.10482 29.7941 7.84153 30.4624 7.17609 31.5536C6.76019 32.2323 6.60943 33.1408 7.19689 33.7621C7.5504 34.1328 8.13786 34.2685 8.58495 34.0022C9.12041 33.689 9.13081 33.0729 9.07883 32.5351C8.98005 31.4439 8.73571 30.3632 8.3614 29.3242C6.76019 26.0715 5.5021 22.6412 4.43636 19.1536C4.43116 19.1431 4.43116 19.1327 4.42596 19.117C3.82811 17.1539 4.2752 15.029 5.63727 13.4522C7.51921 11.275 12.1097 7.23915 12.1097 7.23915C12.1097 7.23915 15.4421 4.45633 17.2252 3.23983C19.0032 2.02855 21.2179 1.11486 23.3545 1.56909C23.8484 1.67352 24.3475 1.86147 24.6698 2.23217C24.9921 2.60286 25.0753 3.19284 24.7478 3.55831C24.5087 3.82459 24.1187 3.91857 23.7548 3.98122C22.2108 4.24227 20.594 4.21094 19.1124 3.73583C17.6307 3.25549 16.2895 2.30004 15.5304 1" stroke="#749FBE" stroke-width="2" stroke-miterlimit="10"/>
<path id="Vector_2" d="M22.6562 6.28369C22.6562 6.28369 23.3373 9.66171 24.0911 12.0791C24.3562 12.9301 25.6195 14.1414 26.285 14.7627C27.9122 16.282 30.1476 18.7202 30.0644 19.1431C29.9501 19.7488 29.5758 20.2761 29.2482 20.8086C28.4996 22.0304 27.9642 23.3565 27.4287 24.6722" stroke="#749FBE" stroke-width="2" stroke-miterlimit="10"/>
</g>
</svg>
