<svg width="185" height="59" viewBox="0 0 185 59" fill="none" xmlns="http://www.w3.org/2000/svg">
<g id="Group 148">
<path id="Vector" d="M147.153 35.9809C146.675 36.8183 146.2 37.6584 145.714 38.4903C144.668 40.2886 143.419 41.9194 141.739 43.1823C139.96 44.5194 137.953 45.2387 135.729 45.1811C132.467 45.096 129.834 43.7891 128.055 40.9667C128 40.8761 127.929 40.7965 127.816 40.6482C127.575 40.9118 127.355 41.1452 127.138 41.3813C126.411 42.172 125.724 43.0094 124.944 43.7452C123.596 45.0191 121.949 45.4913 120.137 45.1509C117.938 44.7363 116.661 43.2949 116.112 41.1891C115.81 40.036 115.761 38.8499 115.893 37.6584C116.008 36.6178 116.098 35.5718 116.219 34.5312C116.271 34.0755 116.373 33.628 116.439 33.175C116.551 32.3925 116.362 31.7528 115.637 31.3135C114.962 30.9044 114.33 30.4267 113.658 30.0149C113.081 29.6607 112.864 29.7266 112.603 30.3608C112.117 31.5359 111.675 32.7302 111.209 33.9135C110.256 36.3323 109.114 38.655 107.508 40.7169C105.957 42.7074 104.037 44.1872 101.569 44.8708C97.4647 46.0102 93.0883 44.2339 91.117 40.6043C90.848 40.1074 90.6613 39.561 90.4828 39.0229C90.2824 38.4161 90.0326 37.9384 89.2721 37.9522C89.0661 37.9576 88.8136 37.7847 88.6571 37.6227C88.2398 37.1807 88.2343 36.6425 88.3935 36.0797C88.5308 35.591 88.8108 35.2533 89.3325 35.1902C90.1067 35.0968 90.4499 34.6026 90.6366 33.9053C91.0484 32.3788 91.7348 30.9868 92.7863 29.8007C93.9504 28.4856 95.3424 27.5192 97.116 27.2364C98.2883 27.0497 99.4414 27.1431 100.52 27.6839C101.803 28.3264 102.478 29.636 102.297 31.0637C102.039 33.0734 101.023 34.6383 99.4442 35.8491C98.1181 36.8649 96.6081 37.4964 94.9717 37.8286C94.7576 37.8725 94.5407 37.911 94.3265 37.9576C93.6731 38.0977 93.5386 38.3283 93.8323 38.9268C94.6972 40.6922 96.0645 41.8288 98.0302 42.1885C100.883 42.7129 103.107 41.6174 104.872 39.4567C106.854 37.0297 108.197 34.2485 109.218 31.3053C109.512 30.4569 109.74 29.5838 110.025 28.73C110.286 27.953 110.237 27.2254 109.844 26.5061C109.542 25.9515 109.435 25.353 109.498 24.7215C109.641 23.3158 111.093 22.4098 112.34 22.9617C112.922 23.2197 113.295 23.6508 113.334 24.3179C113.394 25.3722 113.877 26.2123 114.704 26.8383C115.58 27.5 116.491 28.1122 117.386 28.7465C118.333 29.4164 119.014 30.2812 119.294 31.4206C119.517 32.3239 119.561 33.2271 119.322 34.1496C119.209 34.5862 119.239 35.0611 119.173 35.5141C119.039 36.4394 118.825 37.3536 118.819 38.2981C118.814 39.0531 118.899 39.7807 119.108 40.5082C119.511 41.9194 120.931 42.7101 122.375 41.848C123.157 41.3813 123.86 40.8212 124.417 40.1046C125.793 38.331 126.751 36.3598 127.314 34.1771C127.962 31.6539 129.195 29.4987 131.528 28.1342C132.305 27.6785 133.118 27.3847 134.04 27.2474C134.801 27.1348 135.523 27.2145 136.223 27.327C138.326 27.6647 139.471 29.5811 138.944 31.7253C138.428 33.8311 137.148 35.3494 135.312 36.4449C134.186 37.1148 132.975 37.5486 131.696 37.8149C131.46 37.8643 131.223 37.9137 130.993 37.9823C130.403 38.1553 130.315 38.3338 130.559 38.8884C130.996 39.8768 131.663 40.6757 132.558 41.2852C134.905 42.8831 138.104 42.6442 140.303 40.6977C141.478 39.6571 142.475 38.482 143.254 37.101C144.594 34.7289 145.879 32.3348 146.898 29.8007C147.29 28.8288 147.471 27.8295 147.578 26.7999C147.666 25.9762 147.771 25.1526 147.889 24.3289C148.292 21.5093 148.836 18.7171 149.443 15.9359C149.489 15.7218 149.531 15.5021 149.616 15.3017C149.852 14.7553 150.275 14.4286 150.876 14.3792C151.496 14.327 151.996 14.5604 152.325 15.0985C152.6 15.546 152.507 16.0485 152.424 16.5097C152.109 18.2778 151.743 20.035 151.406 21.8003C151.186 22.9534 150.944 24.1065 150.782 25.2706C150.629 26.3716 150.48 27.4863 150.494 28.59C150.505 29.5564 150.42 30.5008 150.307 31.4535C150.242 32.0246 150.22 32.5984 150.178 33.1722C150.231 33.1914 150.28 33.2107 150.332 33.2271C150.494 33.0075 150.662 32.7933 150.818 32.571C151.793 31.1872 152.732 29.776 153.978 28.6147C154.654 27.9887 155.346 27.3737 156.076 26.8136C157.155 25.9845 158.388 25.7895 159.694 26.1382C160.636 26.3908 161.243 27.025 161.55 27.9393C161.954 29.1391 161.976 30.3663 161.638 31.5716C161.045 33.6774 159.769 35.2753 157.869 36.3598C156.952 36.8841 155.969 37.1477 154.903 37.0708C154.673 37.0544 154.439 37.0708 154.132 37.0708C154.212 37.2328 154.234 37.3152 154.283 37.3756C155.749 39.1053 157.44 40.5467 159.532 41.4746C161.534 42.3614 163.206 42.0896 164.798 40.5851C166.649 38.8362 167.986 36.7414 168.941 34.394C169.57 32.8482 170.402 31.4398 171.731 30.3828C173.156 29.2489 174.784 28.6476 176.612 28.7465C177.343 28.7876 178.078 28.9469 178.789 29.1391C179.827 29.4164 179.943 29.4109 180.522 28.5268C180.868 27.9997 181.291 27.6318 181.974 27.6812C182.743 27.7361 183.229 28.3017 183.105 29.0622C182.976 29.8611 182.79 30.6491 182.672 31.448C182.551 32.2662 182.441 33.0899 182.397 33.9135C182.345 34.9623 182.345 36.0166 182.361 37.0681C182.37 37.5705 182.457 38.073 182.532 38.5699C182.672 39.5116 183.059 40.3243 183.784 40.9695C184.11 41.2605 184.404 41.5899 184.69 41.9222C185.143 42.4493 185.049 43.0176 184.764 43.5804C184.495 44.1103 184.053 44.3245 183.468 44.2943C182.175 44.2311 181.225 43.5942 180.547 42.5344C180.275 42.1116 180.083 41.6394 179.844 41.1946C179.745 41.0079 179.616 40.8404 179.448 40.5878C179.201 40.8102 179.001 40.9667 178.831 41.1507C178.369 41.6503 177.941 42.183 177.463 42.6662C174.946 45.2085 171.552 44.5716 169.625 42.0484C169.359 41.7025 169.133 41.3264 168.856 40.9173C168.689 41.0546 168.538 41.1699 168.395 41.2962C167.673 41.9386 166.97 42.603 166.229 43.2208C163.653 45.365 160.828 45.6753 157.803 44.2998C155.689 43.3388 153.943 41.881 152.361 40.209C151.834 39.6516 151.337 39.0641 150.826 38.4875C150.714 38.3585 150.607 38.224 150.497 38.0922C150.45 38.1059 150.401 38.1224 150.354 38.1361C150.343 38.3832 150.321 38.633 150.324 38.8801C150.368 41.1397 150.417 43.402 150.461 45.6615C150.467 45.9251 150.478 46.1914 150.442 46.4495C150.379 46.93 150.124 47.232 149.621 47.35C148.627 47.5834 147.927 47.2073 147.653 46.2299C147.419 45.4035 147.312 44.5578 147.315 43.693C147.323 41.255 147.315 38.817 147.315 36.379C147.315 36.2472 147.304 36.1154 147.298 35.9836C147.293 35.926 147.287 35.871 147.285 35.8134C147.246 35.8628 147.205 35.9122 147.167 35.9617L147.153 35.9809ZM176.187 31.5249C174.929 31.5716 173.88 32.0026 173.054 32.9169C172.395 33.6417 171.953 34.4956 171.687 35.4428C171.409 36.4284 171.396 37.4387 171.445 38.4463C171.467 38.8994 171.558 39.3661 171.72 39.7889C172.222 41.1095 173.485 41.6119 174.781 41.0463C175.547 40.7114 176.173 40.1897 176.629 39.5061C177.09 38.817 177.518 38.0949 177.872 37.3426C178.435 36.1456 178.721 34.8552 178.929 33.5511C179.075 32.6341 178.883 32.2882 178.023 31.9916C177.43 31.7857 176.802 31.6787 176.189 31.5249H176.187ZM97.9094 29.9408C97.9012 29.9133 97.8957 29.8831 97.8875 29.8556C97.4509 29.9819 96.9787 30.0396 96.5806 30.2428C94.9113 31.0884 93.8324 32.4419 93.3217 34.2402C93.2805 34.3857 93.2668 34.545 93.275 34.696C93.2887 35.0556 93.4315 35.2066 93.7994 35.2368C93.9724 35.2506 94.1508 35.2396 94.3238 35.2149C95.7597 34.9952 97.0583 34.4489 98.1785 33.5182C98.7605 33.0322 99.1751 32.4145 99.4057 31.6869C99.7105 30.7232 99.252 30.0396 98.2389 29.9435C98.1318 29.9325 98.0193 29.9435 97.9122 29.9435L97.9094 29.9408ZM134.567 30.0918C134.543 30.0972 134.389 30.111 134.241 30.1467C132.275 30.6079 130.974 31.8406 130.199 33.6664C130.098 33.9025 130.057 34.1743 130.04 34.4324C130.01 34.9156 130.188 35.1243 130.666 35.1737C130.836 35.1929 131.015 35.1627 131.185 35.1353C132.327 34.9348 133.351 34.4571 134.312 33.8229C134.96 33.3946 135.495 32.851 135.916 32.1948C136.624 31.0884 136.303 30.3087 134.894 30.0918C134.831 30.0808 134.762 30.0918 134.57 30.0918H134.567ZM152.647 34.3034C153.55 34.6383 154.357 34.7619 155.14 34.4406C157.009 33.6664 158.269 32.3129 158.794 30.3389C158.873 30.0423 158.799 29.6937 158.75 29.3752C158.714 29.1446 158.555 29.0238 158.286 29.0073C157.512 28.9634 156.867 29.1857 156.364 29.7952C155.403 30.9621 154.437 32.1234 153.473 33.2875C153.212 33.6033 152.957 33.9245 152.647 34.3061V34.3034ZM150.154 33.3919L150.132 33.4303H150.165L150.151 33.3919H150.154Z" fill="#F9F6E8"/>
<path id="Vector_2" d="M44.2684 28.768C45.0701 28.4824 45.8553 28.1118 46.679 27.9251C50.2619 27.1069 54.1495 28.7817 56.0522 31.9116C56.8566 33.2322 57.1641 34.6791 57.0268 36.2028C56.917 37.4273 56.6479 38.6189 56.011 39.6978C55.9588 39.7885 55.9259 39.89 55.8517 40.0657C57.3041 40.1426 58.438 39.6622 59.3111 38.5969C60.3873 37.2818 61.2796 35.8459 61.8974 34.259C62.6551 32.3179 63.3882 30.3686 64.1322 28.422C64.2722 28.0541 64.3958 27.6753 64.5633 27.3211C65.0025 26.3794 65.6999 26.1076 66.6773 26.4837C67.4872 26.7967 67.9402 27.4254 68.0912 28.2491C68.1846 28.7625 68.1791 29.2951 68.212 29.8195C68.3081 31.3268 68.3219 32.8478 68.5278 34.3414C68.6678 35.3462 69.0686 36.3181 69.3734 37.2983C69.4448 37.5234 69.5848 37.7321 69.7276 37.927C70.3508 38.7726 71.2239 38.9785 72.1683 38.5063C72.344 38.4184 72.5225 38.3223 72.6707 38.1961C74.3565 36.7821 75.6826 35.1238 76.174 32.9219C76.3058 32.3316 76.3854 31.7139 76.3827 31.1099C76.3799 30.2039 76.5254 29.3253 76.7341 28.455C76.9647 27.4995 77.5578 27.1014 78.5818 27.1618C79.411 27.2113 80.1248 27.8702 80.2072 28.7076C80.2648 29.2979 80.2374 29.8827 80.004 30.4537C79.5647 31.5272 79.4714 32.6501 79.5098 33.806C79.5455 34.9042 79.7569 35.9722 79.9079 37.0512C80.0369 37.9792 80.0864 38.9181 80.2319 39.8406C80.4817 41.4165 80.6382 42.9952 80.5888 44.5931C80.5696 45.2026 80.8579 45.4442 81.4674 45.4689C82.2169 45.4991 82.9582 45.598 83.6308 45.9494C84.147 46.2184 84.3968 46.666 84.309 47.2562C84.2238 47.8246 83.9218 48.2501 83.3535 48.3929C83.046 48.4698 82.7056 48.4588 82.3844 48.4286C81.9478 48.3901 81.5195 48.2666 81.0857 48.2364C80.457 48.1925 80.3005 48.3407 80.0864 48.9475C79.7102 50.021 79.3478 51.1027 78.914 52.157C78.5187 53.1179 77.9366 53.9745 77.1926 54.7076C75.5755 56.3027 73.6427 56.8738 71.4545 56.2697C69.2608 55.663 67.5833 54.3451 66.551 52.2805C66.0431 51.2619 65.9525 50.1665 66.1447 49.0655C66.3176 48.0717 66.9052 47.3029 67.6931 46.6907C68.7776 45.8478 70.0131 45.3261 71.3721 45.2246C72.8355 45.1175 74.3071 45.1285 75.7759 45.09C75.9956 45.0845 76.2152 45.0983 76.4348 45.0845C77.0498 45.0488 77.231 44.8869 77.2036 44.2774C77.1514 43.094 77.0608 41.9135 76.9812 40.7302C76.9702 40.5544 76.9455 40.3815 76.9263 40.2058C76.9208 40.1179 76.918 40.0301 76.9126 39.9422C76.8412 39.4562 76.8439 38.9538 76.5941 38.4871C76.1877 38.5255 75.9297 38.7644 75.6743 38.9977C75.1362 39.481 74.62 39.9916 74.0655 40.4556C73.1869 41.1969 72.1875 41.6554 71.0125 41.6581C69.8621 41.6609 68.8792 41.2408 68.0363 40.4803C67.0781 39.6155 66.5098 38.5036 66.1584 37.2873C65.8619 36.2605 65.6175 35.2172 65.5901 34.1382C65.5901 34.0503 65.5873 33.9597 65.5599 33.8774C65.5214 33.7566 65.4583 33.644 65.3704 33.4518C65.2661 33.6495 65.1837 33.7923 65.1151 33.9405C64.4864 35.3407 63.8988 36.7602 63.2262 38.1357C62.6524 39.308 61.8232 40.3074 60.8431 41.1722C59.5609 42.3061 58.0536 42.8717 56.3542 42.9678C56.0494 42.792 55.7419 42.8003 55.4344 42.9595C54.9814 42.8991 54.5202 42.8662 54.0754 42.7646C53.6416 42.6657 53.2819 42.7207 52.9003 42.965C51.1459 44.0934 49.1994 44.6041 47.1265 44.6727C46.7751 44.4997 46.4264 44.5025 46.075 44.6727H44.543C44.5814 44.8924 44.6336 45.1806 44.6803 45.4662C44.8258 46.3447 44.3069 47.1107 43.4613 47.2809C42.6623 47.4402 41.8936 46.9378 41.7096 46.0702C41.5422 45.2877 41.4268 44.4915 41.3307 43.6981C41.1743 42.4186 41.048 41.1338 40.9162 39.8489C40.6883 37.6415 40.6197 35.4231 40.691 33.2075C40.7569 31.2142 40.9024 29.221 41.0507 27.2305C41.1578 25.8165 41.3088 24.4026 41.4763 22.9942C41.5888 22.0442 41.7645 21.0998 41.9128 20.1526C42.0336 19.3783 42.1434 18.6013 42.2725 17.8299C42.4207 16.9513 43.0906 16.4132 43.9362 16.4791C44.6638 16.5367 45.2458 17.1215 45.298 17.8491C45.3062 17.9589 45.3117 18.0715 45.298 18.1785C45.1443 19.145 44.9823 20.1114 44.8258 21.0778C44.7599 21.4814 44.6803 21.885 44.6363 22.2913C44.521 23.3319 44.4771 24.3806 44.2986 25.4102C44.1065 26.5139 44.1092 27.6258 43.9774 28.7295C44.0488 28.9629 44.1476 28.9025 44.252 28.7542L44.2684 28.768ZM44.1449 41.584C44.6665 41.6252 45.1086 41.6334 45.5369 41.6993C46.6625 41.8723 47.7745 41.768 48.8672 41.5126C51.0306 41.0075 52.7438 39.8873 53.6416 37.765C54.4131 35.9392 54.3143 34.2096 52.9662 32.6639C52.3046 31.9033 51.4727 31.379 50.531 31.033C48.0874 30.1325 45.4133 30.9314 44.0296 32.9631C43.8237 33.2651 43.7084 33.5726 43.7221 33.9433C43.7797 35.6098 43.8045 37.2763 43.8813 38.9428C43.9225 39.8159 44.0515 40.6835 44.1421 41.5868L44.1449 41.584ZM74.5789 48.1156C74.5789 48.0964 74.5789 48.0799 74.5761 48.0607C73.5713 48.1321 72.5609 48.1732 71.5616 48.2913C71.0893 48.3462 70.6198 48.5109 70.1778 48.6976C69.6068 48.9365 69.1867 49.3538 69.0933 50.0045C69.0055 50.6167 69.2745 51.1164 69.6507 51.5639C70.381 52.4343 71.3447 52.934 72.4099 53.2689C73.4065 53.5819 74.2604 53.3732 75.0044 52.6374C76.012 51.6436 76.5172 50.3971 76.8522 49.0628C77.0114 48.4231 76.8192 48.154 76.1575 48.1211C75.6332 48.0964 75.106 48.1156 74.5789 48.1156Z" fill="#F9F6E8"/>
<path id="Vector_3" d="M15.7842 33.2296C15.7842 32.5268 15.7842 31.8239 15.7842 31.1211C15.7842 31.0332 15.7897 30.9454 15.7924 30.8603C15.8254 30.3194 15.8556 29.7785 15.8913 29.2102C15.3175 29.1471 14.7766 29.0894 14.2357 29.0263C10.856 28.6392 7.68494 27.5711 4.72254 25.9293C3.36351 25.1771 2.10057 24.2518 0.799201 23.398C0.362665 23.1097 0.00849451 22.7226 0.000257981 22.1762C-0.00523304 21.8413 0.0771323 21.4706 0.228135 21.1741C1.18083 19.3154 2.49867 17.7395 4.0691 16.3667C6.64988 14.1099 9.65896 12.7646 13.0222 12.2045C14.7793 11.9108 16.5584 11.8531 18.332 12.0178C19.3698 12.1139 20.4049 12.2622 21.4345 12.4214C22.2224 12.5422 22.7194 13.0584 22.7798 13.7393C22.8731 14.8073 22.1977 15.5293 21.1215 15.4387C20.2704 15.3674 19.4302 15.1752 18.5819 15.0983C14.4664 14.7304 10.5705 15.3372 7.11113 17.7861C5.69994 18.7855 4.19814 20.3669 3.52275 21.6216C4.25305 22.0774 4.97512 22.5633 5.73014 22.9944C8.15442 24.3726 10.7407 25.3281 13.4889 25.803C14.4718 25.9733 15.4547 26.2506 16.509 26.0584C16.6655 25.5752 16.811 25.0755 16.9867 24.584C17.6594 22.6869 18.5132 20.8831 19.8942 19.3923C21.558 17.5967 23.5677 16.4875 26.0854 16.5095C26.909 16.5177 27.697 16.7154 28.3943 17.1766C29.7643 18.0854 30.3025 19.3923 30.0691 20.9792C29.682 23.6396 28.1472 25.5395 25.9343 26.9452C24.3557 27.9473 22.6068 28.5101 20.7838 28.8615C20.2319 28.9686 19.6718 29.0455 19.0514 29.1471C18.9772 29.817 18.8482 30.4649 18.8482 31.1129C18.8482 32.4499 18.8372 33.7952 18.98 35.1213C19.0953 36.1783 19.3945 37.2244 19.6801 38.2567C20.6328 41.7133 22.2609 44.8349 24.5726 47.5667C26.769 50.164 29.5145 52.0227 32.6828 53.2554C34.3658 53.9116 36.1147 54.2959 37.8883 54.6254C39.1732 54.8643 40.4581 54.8396 41.743 54.9164C42.8549 54.9823 43.9806 54.9054 45.0953 54.8176C45.9436 54.7517 46.781 54.5732 47.6239 54.436C49.6061 54.112 51.5555 54.2877 53.491 54.7764C54.4684 55.0235 55.4596 55.2047 56.4452 55.4161C58.0321 55.7566 59.7206 54.1669 59.4762 52.418C59.2594 50.8778 59.015 49.3321 59.1495 47.7671C59.199 47.2015 59.2758 46.6332 59.4076 46.0814C59.608 45.2413 60.3905 44.7855 61.2224 44.9694C62.0268 45.1479 62.5375 45.9249 62.3563 46.7732C62.0625 48.1515 62.1641 49.5188 62.359 50.8943C62.4908 51.825 62.5897 52.753 62.4661 53.7084C62.1641 56.0201 60.0226 58.1369 57.7026 58.4279C56.4507 58.5844 55.2591 58.3428 54.0621 58.0738C53.2083 57.8816 52.3599 57.6537 51.5005 57.4807C50.2815 57.2364 49.0598 57.2748 47.8353 57.4862C45.691 57.8541 43.5303 58.0134 41.3586 57.9694C37.2761 57.8898 33.3472 57.0964 29.6628 55.2816C25.3221 53.1428 21.989 49.9333 19.562 45.7547C18.0163 43.0943 16.8604 40.2856 16.2729 37.2655C16.0395 36.0658 15.9517 34.8358 15.7979 33.6195C15.9407 33.485 15.9379 33.3532 15.7869 33.2269L15.7842 33.2296ZM19.7295 25.9678C20.3884 25.8223 20.9348 25.7262 21.4674 25.5779C23.0488 25.1331 24.5149 24.4632 25.679 23.258C26.3791 22.5331 26.8541 21.6765 27.049 20.6799C27.1643 20.0924 26.9529 19.7382 26.3654 19.6147C26.0332 19.5433 25.668 19.5405 25.3276 19.5899C24.4628 19.719 23.705 20.1089 23.0186 20.6415C21.2972 21.9758 20.4982 23.8757 19.7295 25.9678Z" fill="#F9F6E8"/>
<path id="Vector_4" d="M32.3866 10.56C31.2884 10.5984 30.1875 10.6396 29.0893 10.6781C28.5649 10.4996 28.0377 10.5024 27.5133 10.6781C25.262 10.6534 23.0546 10.3761 20.9735 9.44808C18.6865 8.4295 16.998 6.75199 15.7488 4.61873C15.3178 3.88293 14.9499 3.1087 14.6095 2.32348C14.4694 1.99951 14.409 1.60141 14.4502 1.24999C14.5271 0.57459 15.0158 0.124327 15.6445 0.0227426C16.3309 -0.0898233 16.9788 0.220419 17.2891 0.84365C17.5828 1.43119 17.8299 2.04344 18.1347 2.62549C18.8156 3.92411 19.7161 5.04703 20.9131 5.91186C22.3243 6.93045 23.9442 7.35875 25.6437 7.53446C27.4365 7.72115 29.2293 7.6635 31.0276 7.57015C32.8863 7.47131 34.7505 7.45484 36.6147 7.43013C37.227 7.42189 37.8392 7.49602 38.4515 7.53171C38.5393 7.53446 38.6272 7.53995 38.7123 7.5427C41.7845 7.73488 44.7304 8.46793 47.5556 9.67047C51.1247 11.1915 54.2052 13.4071 56.7613 16.3256C59.0236 18.9064 60.6819 21.8166 61.4341 25.1963C61.5137 25.5587 61.6016 25.9266 61.6291 26.2945C61.6949 27.1539 61.1513 27.854 60.3744 27.9556C59.4738 28.0736 58.76 27.5767 58.6145 26.6734C57.9528 22.5497 55.7619 19.3154 52.7089 16.6084C50.183 14.368 47.292 12.729 44.088 11.6665C42.4846 11.1338 40.8455 10.7495 39.1406 10.6836C37.8529 10.6341 36.568 10.5051 35.2776 10.4667C34.4458 10.442 33.6111 10.5161 32.7792 10.5463C32.6447 10.4035 32.5129 10.4035 32.3866 10.5573V10.56Z" fill="#F9F6E8"/>
</g>
</svg>
