<svg width="158" height="50" viewBox="0 0 158 50" fill="none" xmlns="http://www.w3.org/2000/svg">
<path d="M125.673 30.7298C125.265 31.445 124.86 32.1625 124.445 32.873C123.551 34.4089 122.484 35.8018 121.049 36.8804C119.53 38.0223 117.816 38.6367 115.916 38.5874C113.131 38.5147 110.882 37.3986 109.363 34.9881C109.316 34.9107 109.255 34.8427 109.159 34.7161C108.952 34.9412 108.765 35.1405 108.579 35.3422C107.958 36.0175 107.372 36.7327 106.706 37.3611C105.555 38.4491 104.148 38.8524 102.6 38.5616C100.722 38.2076 99.6314 36.9765 99.1624 35.178C98.9045 34.1932 98.8623 33.1802 98.9748 32.1625C99.0733 31.2738 99.1507 30.3804 99.2539 29.4917C99.2984 29.1025 99.3852 28.7203 99.4415 28.3334C99.5376 27.6651 99.3758 27.1188 98.7568 26.7436C98.1799 26.3942 97.6406 25.9862 97.0661 25.6345C96.5737 25.332 96.3885 25.3882 96.1657 25.9299C95.7507 26.9335 95.3731 27.9535 94.9745 28.9642C94.1609 31.03 93.1854 33.0137 91.8137 34.7747C90.4888 36.4747 88.8498 37.7386 86.7417 38.3225C83.2362 39.2956 79.4985 37.7785 77.8149 34.6786C77.5851 34.2541 77.4256 33.7875 77.2732 33.3279C77.102 32.8097 76.8887 32.4017 76.2391 32.4134C76.0633 32.4181 75.8475 32.2704 75.7139 32.1321C75.3575 31.7545 75.3528 31.2949 75.4888 30.8142C75.606 30.3969 75.8452 30.1084 76.2907 30.0545C76.952 29.9748 77.2451 29.5527 77.4045 28.9571C77.7562 27.6534 78.3425 26.4645 79.2405 25.4516C80.2348 24.3284 81.4236 23.503 82.9384 23.2615C83.9396 23.102 84.9245 23.1817 85.846 23.6437C86.941 24.1924 87.5179 25.3109 87.3631 26.5302C87.1427 28.2466 86.2751 29.5832 84.9268 30.6173C83.7942 31.4849 82.5046 32.0242 81.107 32.3079C80.9241 32.3454 80.7389 32.3783 80.556 32.4181C79.9979 32.5377 79.883 32.7347 80.1339 33.2459C80.8726 34.7536 82.0403 35.7244 83.7192 36.0315C86.1555 36.4794 88.0549 35.5438 89.5626 33.6984C91.2556 31.6256 92.4022 29.2502 93.2745 26.7365C93.5254 26.012 93.72 25.2663 93.9639 24.5371C94.1866 23.8735 94.1444 23.2521 93.8091 22.6377C93.5512 22.1641 93.4597 21.6529 93.5137 21.1136C93.6356 19.913 94.876 19.1392 95.9406 19.6105C96.4377 19.8309 96.7566 20.1991 96.7894 20.7689C96.841 21.6693 97.2537 22.3868 97.9595 22.9215C98.7075 23.4866 99.486 24.0095 100.25 24.5511C101.059 25.1233 101.641 25.8619 101.88 26.835C102.07 27.6065 102.108 28.3779 101.904 29.1658C101.807 29.5386 101.833 29.9443 101.777 30.3312C101.662 31.1214 101.479 31.9023 101.474 32.7089C101.47 33.3537 101.542 33.9751 101.721 34.5965C102.065 35.8018 103.278 36.4771 104.511 35.7408C105.179 35.3422 105.78 34.8638 106.256 34.2518C107.43 32.737 108.249 31.0534 108.729 29.1893C109.283 27.0343 110.336 25.1936 112.329 24.0282C112.992 23.639 113.686 23.3881 114.474 23.2708C115.124 23.1747 115.741 23.2427 116.339 23.3388C118.135 23.6273 119.112 25.264 118.662 27.0953C118.221 28.8938 117.129 30.1905 115.56 31.1261C114.599 31.6983 113.565 32.0687 112.472 32.2962C112.27 32.3384 112.069 32.3806 111.872 32.4392C111.367 32.587 111.292 32.7394 111.501 33.213C111.874 34.0572 112.444 34.7395 113.208 35.2601C115.213 36.6248 117.945 36.4208 119.823 34.7583C120.827 33.8696 121.678 32.866 122.344 31.6865C123.488 29.6606 124.585 27.6159 125.455 25.4516C125.791 24.6215 125.945 23.768 126.037 22.8886C126.112 22.1852 126.201 21.4817 126.302 20.7783C126.646 18.3701 127.111 15.9854 127.629 13.61C127.669 13.4271 127.704 13.2396 127.777 13.0684C127.978 12.6018 128.339 12.3227 128.853 12.2805C129.383 12.236 129.81 12.4353 130.091 12.8949C130.326 13.2771 130.246 13.7062 130.175 14.1001C129.906 15.6102 129.594 17.1109 129.306 18.6186C129.118 19.6035 128.912 20.5883 128.773 21.5825C128.642 22.5228 128.515 23.4748 128.527 24.4175C128.536 25.2429 128.464 26.0495 128.368 26.8632C128.311 27.3509 128.293 27.841 128.257 28.331C128.302 28.3475 128.344 28.3639 128.389 28.3779C128.527 28.1903 128.67 28.0075 128.804 27.8175C129.636 26.6357 130.438 25.4305 131.503 24.4386C132.08 23.904 132.67 23.3787 133.294 22.9004C134.216 22.1922 135.269 22.0257 136.385 22.3235C137.189 22.5392 137.707 23.0809 137.97 23.8617C138.314 24.8864 138.333 25.9346 138.045 26.964C137.538 28.7625 136.448 30.1272 134.825 31.0534C134.042 31.5013 133.203 31.7264 132.293 31.6607C132.096 31.6467 131.897 31.6607 131.634 31.6607C131.702 31.7991 131.721 31.8694 131.763 31.921C133.015 33.3983 134.46 34.6293 136.246 35.4219C137.956 36.1793 139.384 35.9471 140.744 34.6621C142.324 33.1685 143.466 31.3794 144.282 29.3745C144.819 28.0543 145.53 26.8514 146.665 25.9487C147.881 24.9802 149.272 24.4667 150.834 24.5511C151.457 24.5863 152.086 24.7223 152.693 24.8864C153.579 25.1233 153.678 25.1186 154.173 24.3635C154.468 23.9133 154.829 23.5991 155.413 23.6413C156.07 23.6882 156.485 24.1713 156.379 24.8208C156.269 25.5031 156.11 26.1761 156.009 26.8585C155.906 27.5572 155.812 28.2607 155.774 28.9642C155.73 29.8599 155.73 30.7603 155.744 31.6584C155.751 32.0875 155.826 32.5166 155.889 32.941C156.009 33.7453 156.339 34.4394 156.958 34.9904C157.237 35.239 157.488 35.5204 157.732 35.8041C158.119 36.2543 158.039 36.7397 157.796 37.2204C157.566 37.6729 157.188 37.8558 156.689 37.8301C155.584 37.7761 154.773 37.2321 154.194 36.327C153.962 35.9659 153.798 35.5626 153.594 35.1827C153.509 35.0233 153.399 34.8802 153.256 34.6645C153.045 34.8544 152.874 34.9881 152.728 35.1452C152.334 35.572 151.969 36.0269 151.561 36.4396C149.41 38.6109 146.512 38.0669 144.866 35.912C144.639 35.6165 144.446 35.2953 144.209 34.9459C144.066 35.0631 143.937 35.1616 143.816 35.2695C143.199 35.8182 142.599 36.3856 141.965 36.9132C139.766 38.7445 137.353 39.0095 134.769 37.8347C132.964 37.014 131.472 35.7689 130.122 34.3409C129.671 33.8649 129.247 33.3631 128.811 32.8707C128.715 32.7605 128.623 32.6456 128.529 32.533C128.49 32.5447 128.447 32.5588 128.407 32.5705C128.398 32.7816 128.379 32.995 128.382 33.206C128.419 35.1358 128.461 37.068 128.499 38.9978C128.504 39.2229 128.513 39.4503 128.483 39.6708C128.429 40.0811 128.211 40.339 127.781 40.4399C126.933 40.6392 126.335 40.3179 126.1 39.4832C125.901 38.7774 125.809 38.0552 125.812 37.3165C125.819 35.2343 125.812 33.1521 125.812 31.0698C125.812 30.9573 125.802 30.8447 125.798 30.7322C125.793 30.6829 125.788 30.636 125.786 30.5868C125.753 30.629 125.718 30.6712 125.685 30.7134L125.673 30.7298ZM150.47 26.9241C149.396 26.964 148.501 27.3321 147.795 28.113C147.232 28.732 146.854 29.4613 146.627 30.2702C146.39 31.112 146.378 31.9749 146.421 32.8355C146.439 33.2224 146.517 33.621 146.655 33.9821C147.084 35.11 148.163 35.5391 149.27 35.0561C149.924 34.77 150.458 34.3245 150.848 33.7406C151.242 33.1521 151.607 32.5354 151.91 31.8929C152.391 30.8705 152.635 29.7684 152.813 28.6546C152.937 27.8714 152.773 27.576 152.039 27.3228C151.532 27.1469 150.995 27.0554 150.473 26.9241H150.47ZM83.616 25.5711C83.609 25.5477 83.6043 25.5219 83.5973 25.4985C83.2245 25.6063 82.8211 25.6556 82.4811 25.8291C81.0555 26.5513 80.1339 27.7073 79.6978 29.2432C79.6626 29.3675 79.6509 29.5035 79.6579 29.6324C79.6696 29.9396 79.7916 30.0686 80.1058 30.0944C80.2535 30.1061 80.4059 30.0967 80.5537 30.0756C81.78 29.888 82.8891 29.4214 83.8458 28.6265C84.3429 28.2115 84.697 27.6839 84.894 27.0625C85.1543 26.2394 84.7627 25.6556 83.8974 25.5735C83.806 25.5641 83.7098 25.5735 83.6184 25.5735L83.616 25.5711ZM114.925 25.7001C114.903 25.7048 114.772 25.7165 114.646 25.747C112.967 26.1409 111.855 27.1938 111.194 28.7531C111.107 28.9548 111.072 29.1869 111.058 29.4073C111.032 29.82 111.185 29.9982 111.593 30.0404C111.738 30.0569 111.89 30.0311 112.036 30.0076C113.011 29.8364 113.886 29.4284 114.706 28.8868C115.26 28.521 115.717 28.0567 116.076 27.4963C116.681 26.5513 116.406 25.8854 115.204 25.7001C115.15 25.6907 115.091 25.7001 114.927 25.7001H114.925ZM130.365 29.2971C131.137 29.5832 131.826 29.6887 132.495 29.4144C134.091 28.7531 135.168 27.5971 135.616 25.9111C135.684 25.6579 135.62 25.3601 135.578 25.0881C135.548 24.8911 135.412 24.788 135.182 24.7739C134.521 24.7364 133.969 24.9263 133.54 25.4469C132.72 26.4434 131.894 27.4353 131.071 28.4295C130.848 28.6992 130.63 28.9735 130.365 29.2995V29.2971ZM128.236 28.5186L128.218 28.5515H128.246L128.234 28.5186H128.236Z" fill="#FBF9EF"/>
<path d="M37.8128 24.5705C38.4975 24.3267 39.1681 24.0101 39.8716 23.8507C42.9316 23.1519 46.2519 24.5823 47.8769 27.2554C48.5639 28.3833 48.8266 29.619 48.7093 30.9204C48.6155 31.9662 48.3857 32.9839 47.8417 33.9054C47.7972 33.9828 47.769 34.0695 47.7057 34.2196C48.9461 34.2853 49.9146 33.8749 50.6602 32.9651C51.5794 31.8419 52.3415 30.6156 52.8691 29.2602C53.5163 27.6024 54.1423 25.9376 54.7778 24.2751C54.8974 23.9609 55.0029 23.6373 55.1459 23.3348C55.5211 22.5305 56.1167 22.2984 56.9515 22.6196C57.6432 22.8869 58.0301 23.4239 58.1591 24.1273C58.2388 24.5658 58.2341 25.0207 58.2622 25.4686C58.3443 26.7559 58.356 28.055 58.5319 29.3306C58.6515 30.1888 58.9938 31.0189 59.2541 31.856C59.3151 32.0483 59.4347 32.2265 59.5566 32.393C60.0889 33.1152 60.8346 33.291 61.6412 32.8877C61.7913 32.8127 61.9437 32.7306 62.0703 32.6228C63.51 31.4152 64.6426 29.9989 65.0623 28.1183C65.1749 27.6142 65.2429 27.0866 65.2405 26.5707C65.2382 25.7969 65.3625 25.0465 65.5407 24.3032C65.7376 23.4872 66.2441 23.1472 67.1188 23.1988C67.8269 23.241 68.4366 23.8038 68.5069 24.5189C68.5562 25.0231 68.5327 25.5225 68.3334 26.0103C67.9582 26.9271 67.8785 27.8862 67.9113 28.8733C67.9418 29.8113 68.1224 30.7234 68.2513 31.645C68.3615 32.4375 68.4038 33.2395 68.528 34.0273C68.7414 35.3733 68.8751 36.7216 68.8329 38.0863C68.8164 38.6068 69.0627 38.8132 69.5832 38.8343C70.2234 38.8601 70.8565 38.9445 71.431 39.2446C71.8718 39.4744 72.0852 39.8566 72.0101 40.3608C71.9374 40.8462 71.6795 41.2096 71.1941 41.3316C70.9315 41.3972 70.6407 41.3878 70.3664 41.362C69.9936 41.3292 69.6278 41.2237 69.2573 41.1979C68.7203 41.1604 68.5867 41.287 68.4038 41.8052C68.0825 42.7221 67.773 43.6459 67.4025 44.5464C67.0648 45.3671 66.5677 46.0986 65.9323 46.7247C64.5512 48.0871 62.9004 48.5748 61.0315 48.0589C59.158 47.5407 57.7253 46.4152 56.8436 44.6519C56.4098 43.7819 56.3324 42.8463 56.4966 41.906C56.6443 41.0572 57.1461 40.4006 57.8191 39.8777C58.7453 39.1579 59.8005 38.7124 60.9612 38.6256C62.211 38.5341 63.4678 38.5435 64.7223 38.5107C64.9099 38.506 65.0975 38.5177 65.2851 38.506C65.8103 38.4755 65.9651 38.3372 65.9417 37.8166C65.8971 36.806 65.8197 35.7977 65.7517 34.7871C65.7423 34.637 65.7212 34.4893 65.7048 34.3392C65.7001 34.2642 65.6978 34.1891 65.6931 34.1141C65.6321 33.6991 65.6345 33.2699 65.4211 32.8713C65.0741 32.9041 64.8536 33.1081 64.6356 33.3075C64.176 33.7202 63.7351 34.1563 63.2615 34.5526C62.5111 35.1857 61.6576 35.5773 60.654 35.5796C59.6715 35.582 58.832 35.2232 58.1122 34.5737C57.2938 33.8351 56.8084 32.8854 56.5083 31.8466C56.2551 30.9696 56.0464 30.0786 56.0229 29.1571C56.0229 29.082 56.0206 29.0046 55.9971 28.9343C55.9643 28.8311 55.9104 28.735 55.8353 28.5709C55.7462 28.7397 55.6759 28.8616 55.6173 28.9882C55.0803 30.1841 54.5785 31.3964 54.004 32.5712C53.5139 33.5724 52.8058 34.426 51.9687 35.1646C50.8736 36.133 49.5863 36.6161 48.1348 36.6981C47.8745 36.5481 47.6119 36.5551 47.3493 36.6911C46.9624 36.6395 46.5685 36.6114 46.1886 36.5246C45.8181 36.4402 45.5109 36.4871 45.185 36.6958C43.6866 37.6595 42.0241 38.0957 40.2538 38.1543C39.9536 38.0065 39.6558 38.0089 39.3557 38.1543H38.0473C38.0801 38.3419 38.1246 38.5881 38.1645 38.8319C38.2888 39.5823 37.8456 40.2365 37.1234 40.3819C36.441 40.5179 35.7845 40.0888 35.6274 39.3478C35.4843 38.6795 35.3858 37.9995 35.3038 37.3218C35.1701 36.2291 35.0623 35.1318 34.9497 34.0344C34.7551 32.1491 34.6965 30.2545 34.7574 28.3622C34.8137 26.6598 34.938 24.9574 35.0646 23.2574C35.156 22.0498 35.285 20.8422 35.428 19.6393C35.5242 18.828 35.6743 18.0213 35.8009 17.2124C35.9041 16.5511 35.9978 15.8875 36.1081 15.2286C36.2347 14.4783 36.8068 14.0187 37.529 14.075C38.1504 14.1242 38.6475 14.6237 38.6921 15.245C38.6991 15.3388 38.7038 15.435 38.6921 15.5264C38.5608 16.3518 38.4224 17.1772 38.2888 18.0026C38.2325 18.3473 38.1645 18.692 38.127 19.039C38.0285 19.9277 37.991 20.8234 37.8386 21.7028C37.6744 22.6454 37.6768 23.5951 37.5642 24.5377C37.6252 24.737 37.7096 24.6854 37.7987 24.5588L37.8128 24.5705ZM37.7072 35.5163C38.1528 35.5515 38.5303 35.5585 38.8961 35.6148C39.8575 35.7625 40.8071 35.6734 41.7404 35.4553C43.5881 35.0239 45.0513 34.0672 45.8181 32.2546C46.477 30.6953 46.3926 29.218 45.2413 27.8979C44.6762 27.2484 43.9657 26.8005 43.1614 26.505C41.0745 25.7359 38.7906 26.4183 37.6088 28.1535C37.4329 28.4114 37.3344 28.674 37.3461 28.9906C37.3954 30.4139 37.4165 31.8372 37.4821 33.2606C37.5173 34.0062 37.6275 34.7472 37.7049 35.5187L37.7072 35.5163ZM63.7 41.0947C63.7 41.0783 63.7 41.0642 63.6976 41.0478C62.8394 41.1088 61.9765 41.144 61.123 41.2448C60.7197 41.2917 60.3187 41.4324 59.9412 41.5918C59.4534 41.7958 59.0947 42.1523 59.0149 42.708C58.9399 43.2309 59.1697 43.6577 59.491 44.0399C60.1147 44.7832 60.9377 45.2099 61.8475 45.496C62.6987 45.7633 63.428 45.5851 64.0634 44.9567C64.924 44.1079 65.3554 43.0433 65.6415 41.9037C65.7775 41.3573 65.6134 41.1276 65.0483 41.0994C64.6004 41.0783 64.1502 41.0947 63.7 41.0947Z" fill="white"/>
<path d="M13.4808 28.3805C13.4808 27.7802 13.4808 27.1799 13.4808 26.5796C13.4808 26.5046 13.4855 26.4295 13.4878 26.3568C13.516 25.8949 13.5418 25.433 13.5722 24.9476C13.0822 24.8937 12.6202 24.8444 12.1583 24.7905C9.27178 24.4599 6.56347 23.5477 4.03337 22.1455C2.87267 21.503 1.79403 20.7128 0.682573 19.9835C0.309741 19.7373 0.0072549 19.4067 0.000220334 18.9401C-0.00446938 18.654 0.0658763 18.3374 0.194843 18.0842C1.00851 16.4967 2.13404 15.1508 3.4753 13.9784C5.67946 12.0509 8.24942 10.9019 11.1219 10.4235C12.6226 10.1727 14.142 10.1234 15.6568 10.2641C16.5432 10.3462 17.4272 10.4728 18.3065 10.6088C18.9795 10.712 19.4039 11.1528 19.4555 11.7343C19.5352 12.6465 18.9584 13.2632 18.0392 13.1858C17.3123 13.1248 16.5948 12.9607 15.8702 12.895C12.3553 12.5808 9.02792 13.099 6.0734 15.1906C4.86814 16.0442 3.5855 17.3948 3.00867 18.4664C3.6324 18.8557 4.2491 19.2707 4.89393 19.6388C6.96444 20.816 9.1733 21.632 11.5205 22.0376C12.36 22.183 13.1994 22.4198 14.0998 22.2557C14.2335 21.843 14.3578 21.4162 14.5078 20.9965C15.0823 19.3762 15.8116 17.8356 16.991 16.5624C18.412 15.0288 20.1285 14.0815 22.2787 14.1003C22.9822 14.1073 23.6551 14.2761 24.2507 14.6701C25.4208 15.4462 25.8804 16.5624 25.6811 17.9177C25.3505 20.1899 24.0397 21.8125 22.1497 23.0131C20.8014 23.869 19.3078 24.3496 17.7508 24.6498C17.2795 24.7412 16.8011 24.8069 16.2712 24.8937C16.2079 25.4658 16.0977 26.0192 16.0977 26.5726C16.0977 27.7145 16.0883 28.8635 16.2102 29.9961C16.3087 30.8988 16.5643 31.7922 16.8081 32.6739C17.6218 35.6261 19.0123 38.2922 20.9867 40.6253C22.8626 42.8435 25.2074 44.431 27.9134 45.4838C29.3508 46.0443 30.8445 46.3725 32.3592 46.6539C33.4566 46.8579 34.554 46.8368 35.6514 46.9025C36.6011 46.9587 37.5625 46.8931 38.5145 46.8181C39.239 46.7618 39.9542 46.6094 40.6741 46.4921C42.3671 46.2154 44.0319 46.3655 45.685 46.7829C46.5198 46.9939 47.3663 47.1487 48.2081 47.3292C49.5634 47.62 51.0055 46.2623 50.7968 44.7687C50.6116 43.4532 50.4029 42.133 50.5178 40.7965C50.56 40.3134 50.6257 39.828 50.7382 39.3567C50.9094 38.6392 51.5777 38.25 52.2882 38.4071C52.9752 38.5595 53.4113 39.2231 53.2566 39.9476C53.0057 41.1247 53.0924 42.2925 53.2589 43.4673C53.3715 44.2622 53.4559 45.0547 53.3504 45.8707C53.0924 47.8451 51.2635 49.653 49.2821 49.9015C48.2128 50.0352 47.1951 49.8288 46.1728 49.5991C45.4435 49.4349 44.719 49.2403 43.985 49.0926C42.9439 48.8839 41.9004 48.9167 40.8546 49.0973C39.0233 49.4115 37.1779 49.5475 35.3231 49.5099C31.8363 49.4419 28.4808 48.7643 25.334 47.2143C21.6268 45.3877 18.7802 42.6466 16.7073 39.0777C15.3872 36.8055 14.4 34.4067 13.8982 31.8274C13.6989 30.8027 13.6238 29.7522 13.4925 28.7134C13.6145 28.5985 13.6121 28.486 13.4831 28.3781L13.4808 28.3805ZM16.8504 22.1783C17.4131 22.054 17.8797 21.972 18.3346 21.8453C19.6853 21.4655 20.9374 20.8933 21.9317 19.8639C22.5296 19.2449 22.9353 18.5133 23.1017 17.6621C23.2002 17.1603 23.0197 16.8578 22.5179 16.7523C22.2341 16.6913 21.9223 16.689 21.6315 16.7312C20.8929 16.8414 20.2457 17.1744 19.6595 17.6293C18.1893 18.7689 17.5069 20.3915 16.8504 22.1783Z" fill="#FFD55A"/>
<path d="M27.6579 9.01898C26.72 9.05181 25.7797 9.08698 24.8418 9.11981C24.3939 8.96739 23.9437 8.96974 23.4958 9.11981C21.573 9.09871 19.6878 8.86187 17.9104 8.06931C15.9571 7.19937 14.515 5.76666 13.4481 3.94471C13.08 3.31629 12.7657 2.65504 12.475 1.98441C12.3554 1.70772 12.3038 1.36772 12.339 1.06757C12.4046 0.49074 12.822 0.106183 13.359 0.0194238C13.9452 -0.0767153 14.4986 0.188253 14.7636 0.720536C15.0145 1.22233 15.2255 1.74524 15.4858 2.24235C16.0673 3.35146 16.8364 4.31051 17.8588 5.04914C19.064 5.91908 20.4475 6.28488 21.899 6.43495C23.4301 6.5944 24.9613 6.54516 26.4972 6.46543C28.0847 6.38102 29.6768 6.36695 31.269 6.34584C31.7919 6.33881 32.3148 6.40212 32.8377 6.4326C32.9127 6.43495 32.9878 6.43964 33.0605 6.44198C35.6844 6.60612 38.2004 7.2322 40.6132 8.25925C43.6616 9.5583 46.2925 11.4506 48.4755 13.9432C50.4077 16.1473 51.824 18.6329 52.4665 21.5194C52.5345 21.8289 52.6095 22.1431 52.633 22.4573C52.6893 23.1913 52.225 23.7892 51.5614 23.876C50.7923 23.9768 50.1826 23.5524 50.0583 22.7809C49.4932 19.259 47.622 16.4967 45.0145 14.1847C42.8573 12.2713 40.3881 10.8714 37.6517 9.96396C36.2823 9.50906 34.8824 9.18078 33.4263 9.1245C32.3265 9.08229 31.2291 8.97208 30.1271 8.93925C29.4166 8.91815 28.7037 8.98146 27.9932 9.00726C27.8783 8.88532 27.7658 8.88532 27.6579 9.01663V9.01898Z" fill="#FFD55A"/>
</svg>
