<svg width="132" height="42" viewBox="0 0 132 42" fill="none" xmlns="http://www.w3.org/2000/svg">
<g id="Group 512">
<path id="Vector" d="M104.995 25.6733C104.654 26.2708 104.315 26.8702 103.969 27.4638C103.222 28.7469 102.331 29.9106 101.132 30.8117C99.8626 31.7657 98.4306 32.279 96.8438 32.2379C94.5166 32.1771 92.6379 31.2446 91.3685 29.2308C91.3293 29.1662 91.2784 29.1093 91.198 29.0036C91.0257 29.1916 90.8689 29.3581 90.7142 29.5266C90.195 30.0908 89.7053 30.6883 89.1489 31.2133C88.1871 32.1223 87.0117 32.4592 85.7188 32.2163C84.1496 31.9205 83.2387 30.892 82.8469 29.3895C82.6314 28.5667 82.5961 27.7204 82.6902 26.8702C82.7724 26.1278 82.8371 25.3814 82.9233 24.6389C82.9605 24.3137 83.033 23.9944 83.08 23.6712C83.1603 23.1129 83.0251 22.6564 82.508 22.343C82.0261 22.0511 81.5755 21.7103 81.0955 21.4164C80.6842 21.1637 80.5294 21.2107 80.3433 21.6632C79.9965 22.5017 79.6812 23.3538 79.3481 24.1982C78.6684 25.924 77.8534 27.5813 76.7074 29.0525C75.6006 30.4728 74.2313 31.5287 72.4701 32.0165C69.5414 32.8295 66.4188 31.562 65.0123 28.9722C64.8203 28.6176 64.6871 28.2278 64.5597 27.8438C64.4167 27.4109 64.2385 27.07 63.6958 27.0798C63.5489 27.0838 63.3687 26.9603 63.257 26.8448C62.9592 26.5294 62.9553 26.1454 63.0689 25.7438C63.1669 25.3951 63.3667 25.1542 63.7389 25.1091C64.2914 25.0425 64.5362 24.6899 64.6694 24.1923C64.9633 23.1031 65.453 22.1099 66.2033 21.2636C67.0339 20.3252 68.0271 19.6357 69.2926 19.4339C70.1291 19.3007 70.9519 19.3673 71.7218 19.7532C72.6366 20.2116 73.1185 21.1461 72.9893 22.1647C72.8051 23.5987 72.0803 24.7153 70.9539 25.5793C70.0077 26.3041 68.9302 26.7546 67.7627 26.9917C67.6099 27.023 67.4551 27.0505 67.3023 27.0838C66.8361 27.1837 66.7401 27.3482 66.9497 27.7753C67.5668 29.0349 68.5424 29.8459 69.945 30.1026C71.9804 30.4767 73.5672 29.6951 74.8268 28.1534C76.2412 26.4216 77.1991 24.4372 77.9279 22.3371C78.1375 21.7318 78.3001 21.1088 78.5038 20.4996C78.6899 19.9452 78.6546 19.4261 78.3745 18.9128C78.159 18.5171 78.0826 18.09 78.1277 17.6395C78.2295 16.6365 79.2658 15.99 80.1552 16.3838C80.5705 16.5679 80.837 16.8755 80.8644 17.3515C80.9075 18.1038 81.2523 18.7032 81.8419 19.1499C82.4668 19.622 83.1172 20.0588 83.7558 20.5114C84.4317 20.9893 84.9175 21.6064 85.1173 22.4194C85.276 23.0639 85.3074 23.7084 85.1369 24.3666C85.0566 24.6781 85.0782 25.017 85.0312 25.3403C84.9352 26.0004 84.7824 26.6528 84.7784 27.3267C84.7745 27.8654 84.8352 28.3845 84.9841 28.9037C85.2721 29.9106 86.2849 30.4748 87.3153 29.8596C87.8736 29.5266 88.3751 29.127 88.7728 28.6157C89.7543 27.3502 90.438 25.9436 90.8395 24.3862C91.3019 22.5859 92.1815 21.0481 93.8466 20.0745C94.401 19.7493 94.9808 19.5397 95.6391 19.4417C96.1817 19.3614 96.6969 19.4182 97.1965 19.4986C98.6971 19.7395 99.5139 21.1069 99.1378 22.6369C98.7695 24.1394 97.8566 25.2227 96.5461 26.0044C95.7429 26.4823 94.879 26.7919 93.9661 26.9819C93.7976 27.0172 93.6291 27.0524 93.4646 27.1014C93.0434 27.2248 92.9807 27.3521 93.1551 27.7479C93.4666 28.4531 93.9426 29.0232 94.5812 29.458C96.2561 30.5982 98.5384 30.4277 100.108 29.0388C100.946 28.2964 101.657 27.4579 102.213 26.4726C103.169 24.78 104.086 23.0717 104.813 21.2636C105.093 20.5701 105.222 19.8571 105.299 19.1224C105.362 18.5347 105.436 17.947 105.52 17.3593C105.808 15.3475 106.196 13.3552 106.629 11.3707C106.662 11.2179 106.692 11.0612 106.752 10.9182C106.921 10.5284 107.223 10.2952 107.652 10.26C108.094 10.2228 108.451 10.3893 108.686 10.7732C108.882 11.0925 108.815 11.451 108.756 11.7801C108.531 13.0417 108.271 14.2955 108.03 15.5551C107.873 16.3779 107.701 17.2007 107.585 18.0313C107.475 18.8168 107.369 19.6122 107.379 20.3997C107.387 21.0893 107.326 21.7631 107.246 22.4429C107.199 22.8504 107.183 23.2598 107.154 23.6692C107.191 23.683 107.226 23.6967 107.264 23.7084C107.379 23.5517 107.499 23.3989 107.61 23.2402C108.306 22.2529 108.976 21.246 109.865 20.4173C110.347 19.9707 110.841 19.5319 111.362 19.1322C112.132 18.5406 113.011 18.4015 113.944 18.6503C114.616 18.8305 115.049 19.2831 115.268 19.9354C115.556 20.7915 115.572 21.6672 115.331 22.5272C114.908 24.0297 113.997 25.1698 112.641 25.9436C111.987 26.3178 111.285 26.5059 110.525 26.451C110.361 26.4392 110.194 26.451 109.975 26.451C110.032 26.5666 110.047 26.6254 110.083 26.6684C111.129 27.9026 112.336 28.9311 113.828 29.5932C115.256 30.226 116.449 30.032 117.586 28.9585C118.906 27.7106 119.86 26.2159 120.542 24.541C120.99 23.4381 121.584 22.4331 122.532 21.6789C123.549 20.8698 124.71 20.4408 126.015 20.5114C126.536 20.5407 127.061 20.6544 127.569 20.7915C128.309 20.9893 128.391 20.9854 128.805 20.3546C129.052 19.9785 129.353 19.716 129.841 19.7513C130.39 19.7904 130.736 20.194 130.648 20.7366C130.556 21.3067 130.423 21.8689 130.339 22.439C130.252 23.0228 130.174 23.6105 130.143 24.1982C130.105 24.9465 130.105 25.6988 130.117 26.449C130.123 26.8075 130.186 27.166 130.239 27.5206C130.339 28.1925 130.615 28.7724 131.132 29.2328C131.365 29.4404 131.575 29.6755 131.778 29.9125C132.102 30.2887 132.035 30.6942 131.831 31.0958C131.639 31.4738 131.324 31.6266 130.907 31.6051C129.984 31.56 129.306 31.1056 128.822 30.3494C128.628 30.0477 128.491 29.7108 128.321 29.3934C128.25 29.2602 128.158 29.1407 128.039 28.9605C127.862 29.1191 127.719 29.2308 127.598 29.3621C127.269 29.7186 126.963 30.0986 126.622 30.4434C124.826 32.2574 122.405 31.803 121.03 30.0026C120.839 29.7558 120.679 29.4874 120.481 29.1955C120.361 29.2935 120.254 29.3758 120.152 29.4659C119.637 29.9243 119.135 30.3984 118.606 30.8391C116.769 32.3691 114.753 32.5905 112.594 31.609C111.086 30.9234 109.84 29.8832 108.711 28.6901C108.335 28.2925 107.981 27.8732 107.616 27.4618C107.536 27.3698 107.46 27.2738 107.381 27.1797C107.348 27.1895 107.313 27.2013 107.279 27.2111C107.272 27.3874 107.256 27.5657 107.258 27.742C107.289 29.3542 107.324 30.9684 107.356 32.5807C107.36 32.7687 107.368 32.9588 107.342 33.1429C107.297 33.4857 107.115 33.7012 106.756 33.7855C106.047 33.952 105.548 33.6836 105.352 32.9862C105.185 32.3965 105.109 31.7932 105.111 31.1761C105.117 29.4365 105.111 27.6969 105.111 25.9573C105.111 25.8633 105.103 25.7693 105.099 25.6752C105.095 25.6341 105.091 25.5949 105.089 25.5538C105.062 25.589 105.032 25.6243 105.005 25.6596L104.995 25.6733ZM125.711 22.4938C124.814 22.5272 124.066 22.8347 123.476 23.4871C123.006 24.0042 122.691 24.6135 122.501 25.2893C122.303 25.9926 122.293 26.7135 122.328 27.4325C122.344 27.7557 122.409 28.0887 122.524 28.3904C122.883 29.3327 123.784 29.6912 124.708 29.2876C125.255 29.0486 125.702 28.6764 126.027 28.1886C126.356 27.6969 126.662 27.1817 126.914 26.6449C127.316 25.7908 127.52 24.8701 127.669 23.9396C127.772 23.2853 127.635 23.0384 127.022 22.8269C126.599 22.68 126.15 22.6036 125.713 22.4938H125.711ZM69.8588 21.3635C69.8529 21.3439 69.849 21.3224 69.8431 21.3028C69.5316 21.3929 69.1947 21.434 68.9106 21.579C67.7196 22.1824 66.9497 23.1481 66.5853 24.4313C66.5559 24.5351 66.5461 24.6487 66.552 24.7565C66.5618 25.0131 66.6637 25.1209 66.9262 25.1424C67.0496 25.1522 67.1769 25.1444 67.3004 25.1267C68.3249 24.97 69.2515 24.5802 70.0508 23.9161C70.4661 23.5693 70.7619 23.1286 70.9264 22.6094C71.1439 21.9218 70.8167 21.434 70.0939 21.3655C70.0175 21.3576 69.9372 21.3655 69.8608 21.3655L69.8588 21.3635ZM96.0152 21.4713C95.9976 21.4752 95.8879 21.485 95.7821 21.5104C94.3794 21.8395 93.4509 22.7191 92.8984 24.0219C92.826 24.1903 92.7966 24.3843 92.7848 24.5684C92.7633 24.9132 92.8906 25.0621 93.2315 25.0973C93.3529 25.1111 93.4803 25.0895 93.6017 25.0699C94.4167 24.9269 95.1474 24.586 95.833 24.1335C96.2953 23.8279 96.6773 23.44 96.9771 22.9718C97.4825 22.1824 97.2533 21.626 96.2483 21.4713C96.2033 21.4634 96.1543 21.4713 96.0172 21.4713H96.0152ZM108.915 24.4763C109.56 24.7153 110.136 24.8035 110.694 24.5743C112.028 24.0219 112.927 23.0561 113.301 21.6476C113.358 21.436 113.305 21.1872 113.27 20.96C113.244 20.7954 113.131 20.7092 112.939 20.6975C112.386 20.6661 111.926 20.8248 111.568 21.2597C110.882 22.0923 110.192 22.9209 109.505 23.7515C109.319 23.9768 109.136 24.206 108.915 24.4783V24.4763ZM107.136 23.826L107.121 23.8534H107.144L107.134 23.826H107.136Z" fill="#749FBE"/>
<path id="Vector_2" d="M31.5874 20.5272C32.1595 20.3235 32.7197 20.059 33.3074 19.9258C35.8639 19.342 38.6378 20.537 39.9954 22.7702C40.5694 23.7125 40.7888 24.7449 40.6909 25.8321C40.6125 26.7058 40.4205 27.556 39.966 28.3259C39.9288 28.3906 39.9053 28.463 39.8524 28.5884C40.8887 28.6433 41.6978 28.3005 42.3207 27.5404C43.0887 26.602 43.7253 25.5775 44.1661 24.4452C44.7068 23.0602 45.2298 21.6693 45.7607 20.2804C45.8606 20.0179 45.9488 19.7475 46.0683 19.4948C46.3817 18.8229 46.8793 18.6289 47.5767 18.8973C48.1546 19.1206 48.4778 19.5692 48.5856 20.1569C48.6522 20.5233 48.6483 20.9033 48.6718 21.2775C48.7403 22.353 48.7501 23.4382 48.8971 24.5039C48.997 25.2209 49.283 25.9144 49.5004 26.6138C49.5514 26.7744 49.6513 26.9233 49.7531 27.0624C50.1978 27.6657 50.8208 27.8127 51.4947 27.4757C51.62 27.413 51.7474 27.3445 51.8532 27.2544C53.056 26.2455 54.0022 25.0622 54.3528 23.4911C54.4469 23.07 54.5037 22.6292 54.5017 22.1982C54.4998 21.5517 54.6036 20.9249 54.7525 20.3039C54.917 19.6221 55.3402 19.3381 56.0709 19.3812C56.6625 19.4164 57.1718 19.8866 57.2306 20.4841C57.2717 20.9053 57.2521 21.3225 57.0856 21.73C56.7722 22.496 56.7056 23.2972 56.733 24.1219C56.7585 24.9055 56.9093 25.6676 57.0171 26.4375C57.1091 27.0996 57.1444 27.7696 57.2482 28.4278C57.4265 29.5522 57.5381 30.6787 57.5029 31.8188C57.4892 32.2537 57.6949 32.4261 58.1298 32.4437C58.6646 32.4653 59.1935 32.5358 59.6734 32.7865C60.0417 32.9785 60.22 33.2978 60.1573 33.719C60.0966 34.1245 59.8811 34.4282 59.4756 34.53C59.2562 34.5849 59.0133 34.577 58.7841 34.5555C58.4726 34.5281 58.167 34.4399 57.8575 34.4184C57.4088 34.387 57.2972 34.4928 57.1444 34.9257C56.876 35.6917 56.6174 36.4636 56.3079 37.2158C56.0258 37.9015 55.6105 38.5127 55.0796 39.0357C53.9258 40.1739 52.5466 40.5813 50.9853 40.1504C49.4201 39.7174 48.2232 38.7771 47.4866 37.304C47.1242 36.5772 47.0595 35.7955 47.1966 35.01C47.3201 34.3008 47.7393 33.7523 48.3015 33.3155C49.0753 32.7141 49.9569 32.3418 50.9266 32.2694C51.9707 32.193 53.0207 32.2008 54.0688 32.1734C54.2255 32.1695 54.3822 32.1792 54.5389 32.1695C54.9777 32.144 55.107 32.0284 55.0875 31.5935C55.0502 30.7492 54.9856 29.9068 54.9288 29.0625C54.9209 28.9371 54.9033 28.8137 54.8896 28.6883C54.8857 28.6256 54.8837 28.563 54.8798 28.5003C54.8289 28.1535 54.8308 27.795 54.6526 27.462C54.3626 27.4894 54.1785 27.6599 53.9963 27.8264C53.6123 28.1712 53.244 28.5355 52.8483 28.8666C52.2215 29.3955 51.5084 29.7227 50.6699 29.7246C49.8491 29.7266 49.1478 29.4269 48.5464 28.8842C47.8627 28.2671 47.4572 27.4738 47.2064 26.6059C46.9949 25.8733 46.8205 25.1289 46.8009 24.359C46.8009 24.2963 46.799 24.2316 46.7794 24.1729C46.752 24.0867 46.7069 24.0064 46.6442 23.8692C46.5698 24.0103 46.511 24.1121 46.462 24.2179C46.0134 25.217 45.5942 26.2298 45.1142 27.2113C44.7048 28.0477 44.1132 28.7608 43.4138 29.3779C42.499 30.187 41.4235 30.5905 40.2109 30.6591C39.9935 30.5337 39.774 30.5396 39.5546 30.6532C39.2314 30.6101 38.9023 30.5866 38.5849 30.5141C38.2754 30.4436 38.0188 30.4828 37.7465 30.6571C36.4947 31.4623 35.1058 31.8266 33.6267 31.8756C33.376 31.7522 33.1272 31.7541 32.8765 31.8756H31.7833C31.8108 32.0323 31.848 32.238 31.8813 32.4418C31.9851 33.0686 31.6149 33.6152 31.0115 33.7366C30.4414 33.8503 29.8929 33.4918 29.7617 32.8727C29.6422 32.3144 29.5599 31.7463 29.4913 31.1802C29.3797 30.2673 29.2895 29.3505 29.1955 28.4337C29.0329 26.8586 28.9839 25.2758 29.0349 23.6949C29.0819 22.2726 29.1857 20.8504 29.2915 19.4302C29.3679 18.4213 29.4757 17.4124 29.5951 16.4074C29.6755 15.7296 29.8008 15.0557 29.9066 14.3799C29.9928 13.8275 30.0712 13.2731 30.1633 12.7226C30.269 12.0957 30.747 11.7117 31.3504 11.7588C31.8695 11.7999 32.2848 12.2172 32.3221 12.7363C32.3279 12.8147 32.3319 12.895 32.3221 12.9714C32.2124 13.6609 32.0968 14.3505 31.9851 15.0401C31.9381 15.328 31.8813 15.616 31.8499 15.9059C31.7677 16.6484 31.7363 17.3967 31.609 18.1313C31.4719 18.9189 31.4738 19.7122 31.3798 20.4998C31.4307 20.6663 31.5012 20.6232 31.5757 20.5174L31.5874 20.5272ZM31.4993 29.6717C31.8715 29.7011 32.1869 29.707 32.4925 29.754C33.2957 29.8774 34.0891 29.803 34.8687 29.6208C36.4124 29.2604 37.6348 28.4611 38.2754 26.9468C38.8259 25.6441 38.7554 24.4099 37.7935 23.307C37.3214 22.7644 36.7278 22.3902 36.0559 22.1434C34.3124 21.5008 32.4043 22.0709 31.417 23.5205C31.2701 23.736 31.1878 23.9554 31.1976 24.2199C31.2387 25.409 31.2564 26.5981 31.3112 27.7872C31.3406 28.4102 31.4327 29.0292 31.4973 29.6737L31.4993 29.6717ZM53.2147 34.3322C53.2147 34.3185 53.2147 34.3067 53.2127 34.293C52.4957 34.3439 51.7748 34.3733 51.0617 34.4576C50.7248 34.4967 50.3898 34.6143 50.0744 34.7475C49.6669 34.9179 49.3672 35.2157 49.3006 35.68C49.2379 36.1168 49.4299 36.4733 49.6983 36.7927C50.2194 37.4137 50.907 37.7702 51.6671 38.0092C52.3782 38.2325 52.9874 38.0836 53.5183 37.5586C54.2373 36.8495 54.5977 35.9601 54.8367 35.008C54.9503 34.5516 54.8132 34.3596 54.3411 34.3361C53.9669 34.3185 53.5908 34.3322 53.2147 34.3322Z" fill="#749FBE"/>
<path id="Vector_3" d="M11.2624 23.7097C11.2624 23.2082 11.2624 22.7067 11.2624 22.2052C11.2624 22.1425 11.2663 22.0798 11.2683 22.0191C11.2918 21.6332 11.3133 21.2473 11.3388 20.8418C10.9294 20.7967 10.5435 20.7556 10.1575 20.7105C7.74602 20.4343 5.48339 19.6722 3.36964 18.5008C2.39994 17.964 1.49881 17.3038 0.570249 16.6946C0.25877 16.4889 0.00606104 16.2127 0.000184076 15.8228C-0.0037339 15.5838 0.0550357 15.3194 0.16278 15.1078C0.842549 13.7816 1.78286 12.6571 2.9034 11.6776C4.74485 10.0673 6.8919 9.10742 9.29166 8.70779C10.5454 8.49818 11.8148 8.45704 13.0803 8.57458C13.8208 8.64314 14.5594 8.74893 15.294 8.86255C15.8562 8.94874 16.2108 9.31703 16.2539 9.80286C16.3205 10.5649 15.8386 11.0801 15.0707 11.0155C14.4634 10.9645 13.8639 10.8274 13.2586 10.7726C10.3221 10.5101 7.54229 10.943 5.07396 12.6904C4.06704 13.4035 2.99548 14.5319 2.51357 15.4271C3.03466 15.7523 3.54987 16.099 4.08859 16.4066C5.81838 17.39 7.66374 18.0717 9.62469 18.4107C10.326 18.5321 11.0273 18.73 11.7796 18.5928C11.8912 18.2481 11.9951 17.8915 12.1204 17.5409C12.6004 16.1872 13.2096 14.9001 14.195 13.8364C15.3822 12.5552 16.8161 11.7638 18.6125 11.7795C19.2002 11.7854 19.7625 11.9264 20.26 12.2555C21.2376 12.9039 21.6215 13.8364 21.455 14.9687C21.1788 16.867 20.0837 18.2226 18.5048 19.2256C17.3784 19.9406 16.1305 20.3422 14.8297 20.593C14.436 20.6694 14.0363 20.7242 13.5936 20.7967C13.5407 21.2747 13.4486 21.737 13.4486 22.1993C13.4486 23.1534 13.4408 24.1133 13.5427 25.0595C13.6249 25.8137 13.8385 26.56 14.0422 27.2966C14.722 29.763 15.8837 31.9904 17.5331 33.9395C19.1003 35.7927 21.0593 37.119 23.32 37.9986C24.5208 38.4668 25.7687 38.741 27.0342 38.9761C27.951 39.1465 28.8678 39.1289 29.7846 39.1838C30.578 39.2308 31.3812 39.1759 32.1766 39.1132C32.7819 39.0662 33.3794 38.9389 33.9808 38.8409C35.3952 38.6098 36.7861 38.7351 38.1671 39.0838C38.8645 39.2602 39.5717 39.3895 40.275 39.5403C41.4073 39.7832 42.6121 38.649 42.4377 37.4011C42.283 36.3021 42.1086 35.1992 42.2046 34.0826C42.2399 33.679 42.2947 33.2735 42.3888 32.8797C42.5318 32.2803 43.0901 31.9551 43.6837 32.0863C44.2576 32.2137 44.622 32.7681 44.4927 33.3734C44.2831 34.3568 44.3556 35.3324 44.4947 36.3138C44.5887 36.9779 44.6592 37.6401 44.5711 38.3218C44.3556 39.9713 42.8276 41.4816 41.1722 41.6893C40.2789 41.801 39.4287 41.6286 38.5746 41.4366C37.9654 41.2995 37.36 41.1369 36.7469 41.0135C35.8771 40.8391 35.0053 40.8665 34.1316 41.0174C32.6017 41.2799 31.0599 41.3935 29.5104 41.3622C26.5974 41.3053 23.794 40.7392 21.1651 39.4443C18.0679 37.9182 15.6897 35.6282 13.958 32.6466C12.8551 30.7484 12.0303 28.7443 11.6111 26.5894C11.4446 25.7333 11.3819 24.8557 11.2722 23.9879C11.3741 23.8919 11.3721 23.7979 11.2644 23.7078L11.2624 23.7097ZM14.0775 18.5282C14.5476 18.4244 14.9375 18.3558 15.3175 18.25C16.4459 17.9327 17.492 17.4547 18.3226 16.5947C18.8221 16.0775 19.161 15.4663 19.3001 14.7552C19.3824 14.336 19.2316 14.0832 18.8123 13.9951C18.5753 13.9442 18.3148 13.9422 18.0718 13.9775C17.4548 14.0695 16.9141 14.3477 16.4243 14.7278C15.1961 15.6798 14.626 17.0354 14.0775 18.5282Z" fill="#FFD55A"/>
<path id="Vector_4" d="M23.104 7.53482C22.3204 7.56225 21.5349 7.59163 20.7513 7.61906C20.3771 7.49172 20.001 7.49368 19.6268 7.61906C18.0204 7.60143 16.4454 7.40357 14.9605 6.74143C13.3287 6.01465 12.1239 4.81771 11.2325 3.29557C10.925 2.77056 10.6625 2.21813 10.4196 1.65786C10.3197 1.4267 10.2766 1.14265 10.3059 0.891895C10.3608 0.409984 10.7095 0.08871 11.1581 0.0162274C11.6479 -0.0640911 12.1102 0.157275 12.3315 0.601965C12.5411 1.02119 12.7175 1.45804 12.9349 1.87335C13.4207 2.79995 14.0633 3.60118 14.9174 4.21826C15.9243 4.94504 17.0801 5.25064 18.2927 5.37602C19.572 5.50923 20.8512 5.46809 22.1343 5.40148C23.4605 5.33096 24.7907 5.31921 26.1208 5.30158C26.5577 5.2957 26.9946 5.34859 27.4314 5.37406C27.4941 5.37602 27.5568 5.37994 27.6175 5.38189C29.8096 5.51902 31.9116 6.04207 33.9274 6.90011C36.4741 7.98539 38.6721 9.56629 40.4959 11.6487C42.1101 13.4901 43.2933 15.5667 43.8301 17.9782C43.8869 18.2368 43.9496 18.4993 43.9692 18.7618C44.0162 19.3749 43.6283 19.8745 43.0739 19.947C42.4314 20.0312 41.922 19.6766 41.8182 19.0321C41.3461 16.0897 39.7828 13.782 37.6044 11.8505C35.8022 10.2519 33.7394 9.08242 31.4532 8.32429C30.3092 7.94425 29.1397 7.66999 27.9231 7.62298C27.0044 7.58772 26.0875 7.49564 25.1668 7.46822C24.5733 7.45059 23.9777 7.50348 23.3841 7.52503C23.2882 7.42316 23.1941 7.42316 23.104 7.53286V7.53482Z" fill="#FFD55A"/>
</g>
</svg>
