<svg width="561" height="502" viewBox="0 0 561 502" fill="none" xmlns="http://www.w3.org/2000/svg">
<path d="M316.77 1.55502C316.77 1.55502 497.23 -15.8778 559.979 144.657C561.319 148.17 498.443 170.455 494.485 171.669C447.886 186.42 397.329 194.082 348.304 185.973C312.11 179.97 275.15 164.517 247.574 140.571C231.487 126.586 215.273 101.81 211.571 81.0564C209.72 70.7755 212.082 59.2174 220.252 52.5125C249.872 28.1193 290.47 56.4716 306.62 81.4395C324.047 108.387 333.431 141.72 335.92 173.201C341.602 245.359 326.345 317.772 283.193 377.223C249.872 423.072 203.656 455.766 151.184 478.244C143.332 481.628 135.289 484.885 127.054 487.375C72.6037 503.531 7.62029 505.319 -47.9156 492.739C-89.9186 483.225 -116.601 467.771 -160.264 471.603C-172.839 472.688 -187.521 473.391 -200.161 473.965C-222.503 474.923 -250.781 467.069 -261.186 447.018C-270.123 429.777 -269.357 417.836 -264.123 399.7C-261.122 389.1 -256.335 376.073 -253.973 365.346C-251.675 354.809 -249.377 336.227 -254.292 326.202" stroke="#F9F6E8" stroke-miterlimit="10" stroke-linecap="round"/>
</svg>
