<svg width="555" height="364" viewBox="0 0 555 364" fill="none" xmlns="http://www.w3.org/2000/svg">
<path d="M776.739 358.063C776.739 358.063 953.668 277.491 925.898 94.817C925.26 90.8378 854.924 103.861 850.599 104.857C799.418 116.148 748.361 136.141 707.18 169.954C676.786 194.933 650.745 229.095 637.971 266.11C630.527 287.718 628.75 319.412 636.435 340.663C640.226 351.199 648.614 360.663 659.796 362.506C700.376 369.271 722.882 321.183 724.498 289.345C726.238 254.986 717.086 219.01 702.525 188.45C669.126 118.417 616.147 59.3735 544.209 27.3199C488.691 2.62242 428.249 -2.94983 367.473 4.31686C358.368 5.38474 349.153 6.67383 340.171 8.77698C280.946 22.9734 219.64 56.1551 174.809 97.6095C140.902 128.963 124.405 157.615 81.8041 177.468C69.544 183.203 55.5331 190.423 43.4876 196.666C22.2261 207.755 0.174717 230.209 1.25884 254.401C2.20048 275.199 9.31195 285.873 23.893 299.903C32.3606 308.134 43.7887 317.661 51.7319 326.353C59.5132 334.903 71.6069 350.921 72.4157 362.863" stroke="#F9F6E8" stroke-miterlimit="10" stroke-linecap="round"/>
</svg>
